<svg width="150" height="38" viewBox="0 0 150 38" fill="none" xmlns="http://www.w3.org/2000/svg">
<g clip-path="url(#clip0_9_17)">
<path d="M9.08097 0.0466406V2.01246C8.71279 1.97158 8.34252 1.95197 7.97204 1.95372C4.05151 1.95372 1.98035 4.55523 1.98035 9.47668V14.4741H5.61274V16.3173H1.97336V37.8877H0V9.25384C0 6.08919 0.829511 3.59478 2.39772 2.04182C3.76685 0.690972 5.63893 0 7.96506 0C8.37021 0 8.7317 0.0155469 9.08097 0.0466406Z" fill="#282828"/>
<path d="M104.073 0.12262H102.1V37.9741H104.073V0.12262Z" fill="#282828"/>
<path d="M119.378 5.08903C119.122 4.77416 118.932 4.41213 118.819 4.02398C118.706 3.63584 118.672 3.22933 118.719 2.8281C118.767 2.42686 118.894 2.03892 119.094 1.68682C119.294 1.33472 119.563 1.02549 119.885 0.777128C120.207 0.528761 120.576 0.34621 120.97 0.240091C121.364 0.133972 121.775 0.106403 122.18 0.158987C122.585 0.211571 122.975 0.343259 123.328 0.546393C123.681 0.749526 123.99 1.02005 124.236 1.34223L132.968 12.3978C133.034 12.4824 133.11 12.5705 133.183 12.6483C132.114 12.8209 131.105 13.2567 130.251 13.9157C129.396 14.5747 128.723 15.4356 128.293 16.4192C128.238 16.3239 128.175 16.2326 128.106 16.1463L119.378 5.08903Z" fill="#282828"/>
<path d="M149.289 33.0613C149.546 33.3756 149.738 33.7374 149.852 34.1255C149.966 34.5137 150.001 34.9205 149.955 35.3222C149.909 35.7239 149.782 36.1125 149.583 36.4653C149.383 36.8181 149.115 37.1281 148.793 37.3773C148.471 37.6265 148.102 37.8098 147.708 37.9166C147.314 38.0233 146.902 38.0515 146.497 37.9993C146.091 37.9471 145.701 37.8157 145.347 37.6126C144.994 37.4096 144.685 37.139 144.438 36.8167L135.706 25.7611C135.563 25.5761 135.396 25.4106 135.209 25.2688C136.303 25.1032 137.336 24.6622 138.208 23.9883C139.08 23.3144 139.763 22.43 140.191 21.4201C140.29 21.6275 140.411 21.8234 140.554 22.004L149.289 33.0613Z" fill="#282828"/>
<path d="M133.406 25.3103C133.246 25.4422 133.101 25.591 132.973 25.7542L124.242 36.8098C123.738 37.4471 122.999 37.8604 122.188 37.9589C121.376 38.0574 120.558 37.8329 119.914 37.3349C119.27 36.8369 118.852 36.1062 118.752 35.3034C118.653 34.5006 118.88 33.6916 119.383 33.0544L128.115 21.9988C128.2 21.8891 128.278 21.7737 128.347 21.6533C128.808 22.6369 129.515 23.488 130.401 24.1261C131.288 24.7642 132.324 25.1682 133.412 25.2999" fill="#282828"/>
<path d="M135.422 12.707C135.523 12.6128 135.617 12.5111 135.703 12.4029L144.435 1.3474C144.683 1.03241 144.992 0.768998 145.344 0.572185C145.696 0.375371 146.083 0.249016 146.485 0.200332C146.886 0.151649 147.293 0.181591 147.682 0.288449C148.071 0.395307 148.436 0.576989 148.754 0.82312C149.073 1.06925 149.339 1.37501 149.538 1.72295C149.737 2.07088 149.865 2.45417 149.914 2.85094C149.963 3.2477 149.933 3.65017 149.825 4.03537C149.717 4.42056 149.533 4.78094 149.284 5.09592L140.552 16.1515C140.425 16.3124 140.316 16.4861 140.226 16.6697C139.829 15.6613 139.18 14.769 138.339 14.0765C137.499 13.3841 136.494 12.914 135.42 12.7104" fill="#282828"/>
<path d="M138.397 19.076C138.398 19.8708 138.16 20.6478 137.714 21.3088C137.268 21.9698 136.633 22.485 135.891 22.7894C135.149 23.0938 134.332 23.1736 133.544 23.0188C132.756 22.8639 132.032 22.4814 131.464 21.9195C130.896 21.3577 130.508 20.6417 130.352 19.8623C130.195 19.0828 130.275 18.2748 130.582 17.5405C130.89 16.8062 131.41 16.1786 132.079 15.737C132.747 15.2954 133.532 15.0598 134.335 15.0598C135.412 15.0598 136.445 15.4828 137.207 16.236C137.969 16.9891 138.397 18.0107 138.397 19.076Z" fill="#FF8500"/>
<path d="M22.8456 14.3256C16.0733 14.3256 10.9705 19.4146 10.9705 26.1636V26.25C10.9705 32.949 16.0768 37.9965 22.8456 37.9965C29.6144 37.9965 34.7207 32.9093 34.7207 26.1602V26.0842C34.7207 19.3852 29.6127 14.3377 22.8456 14.3377M32.8312 26.1205V26.2068C32.8312 31.9073 28.5579 36.2104 22.8928 36.2104C17.2713 36.2104 12.867 31.8158 12.867 26.2068V26.1205C12.867 20.4199 17.1386 16.1169 22.8037 16.1169C28.4269 16.1169 32.8312 20.5115 32.8312 26.1205Z" fill="#282828"/>
<path d="M90.7485 16.8943C89.0493 15.2135 86.566 14.3619 83.3685 14.3619C80.6914 14.3619 78.25 14.9682 75.4523 16.3277L75.0524 16.5229L75.7824 18.1467L76.2137 17.9411C78.8088 16.706 81.0022 16.1549 83.3248 16.1549C88.4678 16.1549 91.1834 18.6787 91.1834 23.4533V24.6401C88.6507 23.8673 86.0155 23.4731 83.365 23.4706C77.1149 23.4706 73.0738 26.3727 73.0738 30.8606V30.9487C73.0738 35.7578 77.5864 37.9465 81.7793 37.9465C86.4368 37.9465 89.6379 35.7855 91.1834 33.6521V38.0035H93.0397V23.4084C93.0397 20.6324 92.2469 18.3799 90.745 16.8943M91.1834 26.5195V28.988C91.1834 32.4342 87.6051 36.1534 81.823 36.1534C78.6639 36.1534 74.9756 34.7801 74.9756 30.9055V30.8174C74.9756 26.7234 79.3327 25.2654 83.4104 25.2654C86.3093 25.2654 88.7821 25.6645 91.1834 26.5195Z" fill="#282828"/>
<path d="M55.4253 16.1515C57.4861 16.1301 59.4989 16.7661 61.1655 17.9653L61.197 17.9877H64.0226L63.8112 17.7925C62.2727 16.3225 59.7318 14.3653 55.4672 14.3653C49.025 14.3653 43.7807 19.6478 43.7807 26.1395V26.2224C43.7807 32.7192 49.0058 38.0034 55.4253 38.0034C58.6718 38.0034 61.4135 36.8668 63.8078 34.5279L64.0121 34.3275H61.204L61.1725 34.3499C59.5306 35.5759 57.5244 36.2295 55.4672 36.2086C50.071 36.2086 45.6877 31.7173 45.6877 26.1809V26.098C45.6877 20.5219 49.968 16.1549 55.4323 16.1549" fill="#282828"/>
</g>
<defs>
<clipPath id="clip0_9_17">
<rect width="149.946" height="38" fill="white"/>
</clipPath>
</defs>
</svg>
