<svg width="139" height="28" viewBox="0 0 139 28" fill="none" xmlns="http://www.w3.org/2000/svg">
<g clip-path="url(#clip0_1_4)">
<path d="M5.93504 0.0306846V1.32398C5.69441 1.29709 5.45241 1.28419 5.21028 1.28534C2.64794 1.28534 1.29429 2.99686 1.29429 6.23466V9.52246H3.66831V10.7351H1.28973V24.9261H0V6.08805C0 4.00605 0.542143 2.36499 1.56708 1.3433C2.4619 0.454587 3.68543 0 5.20571 0C5.47051 0 5.70677 0.0102282 5.93504 0.0306846Z" fill="#282828"/>
<path d="M68.0189 0.0806885H66.7292V24.983H68.0189V0.0806885Z" fill="#282828"/>
<path d="M78.0218 3.34803C77.8546 3.14088 77.7304 2.9027 77.6565 2.64734C77.5826 2.39199 77.5605 2.12454 77.5913 1.86058C77.6222 1.59661 77.7054 1.34138 77.8362 1.10974C77.967 0.878092 78.1428 0.674654 78.3532 0.511255C78.5637 0.347856 78.8047 0.227757 79.0622 0.157942C79.3198 0.0881264 79.5886 0.0699888 79.8533 0.104584C80.1179 0.139179 80.373 0.225816 80.6036 0.359456C80.8343 0.493096 81.036 0.671073 81.197 0.883035L86.9038 8.15642C86.9472 8.21211 86.9962 8.27007 87.0442 8.32121C86.3453 8.43479 85.6863 8.72153 85.1279 9.15505C84.5695 9.58858 84.1295 10.155 83.8484 10.8021C83.8121 10.7394 83.7713 10.6794 83.7263 10.6226L78.0218 3.34803Z" fill="#282828"/>
<path d="M97.5708 21.7508C97.7388 21.9576 97.8638 22.1957 97.9385 22.451C98.0132 22.7064 98.0361 22.974 98.0059 23.2383C97.9757 23.5026 97.893 23.7582 97.7626 23.9903C97.6322 24.2225 97.4567 24.4264 97.2463 24.5903C97.0359 24.7543 96.7949 24.8749 96.5373 24.9451C96.2796 25.0154 96.0105 25.0339 95.7456 24.9996C95.4807 24.9652 95.2254 24.8788 94.9944 24.7452C94.7634 24.6116 94.5614 24.4336 94.4002 24.2215L88.6934 16.9481C88.5997 16.8264 88.4903 16.7175 88.3681 16.6242C89.0833 16.5153 89.7583 16.2252 90.3285 15.7818C90.8987 15.3384 91.3449 14.7566 91.6244 14.0922C91.6889 14.2287 91.7685 14.3575 91.8618 14.4763L97.5708 21.7508Z" fill="#282828"/>
<path d="M87.1902 16.6515C87.0854 16.7383 86.9905 16.8362 86.9072 16.9436L81.2004 24.217C80.8714 24.6362 80.3885 24.9082 79.8581 24.973C79.3277 25.0377 78.7932 24.8901 78.3721 24.5625C77.9511 24.2348 77.678 23.7541 77.6129 23.2259C77.5478 22.6978 77.6961 22.1655 78.0252 21.7463L83.7319 14.4729C83.7878 14.4008 83.8385 14.3248 83.8837 14.2456C84.1851 14.8927 84.6472 15.4526 85.2263 15.8724C85.8055 16.2922 86.4826 16.558 87.1937 16.6447" fill="#282828"/>
<path d="M88.5074 8.35984C88.5736 8.29786 88.635 8.231 88.6911 8.15983L94.3979 0.886436C94.5605 0.679212 94.7625 0.505912 94.9924 0.376429C95.2223 0.246947 95.4756 0.163818 95.7377 0.131789C95.9999 0.0997609 96.2658 0.11946 96.5203 0.189761C96.7748 0.260062 97.0129 0.37959 97.221 0.541518C97.4291 0.703447 97.6032 0.904606 97.7332 1.13351C97.8633 1.36241 97.9468 1.61458 97.9789 1.87561C98.0111 2.13664 97.9913 2.40142 97.9207 2.65484C97.8501 2.90826 97.7301 3.14535 97.5674 3.35257L91.8607 10.626C91.7777 10.7318 91.7062 10.8461 91.6472 10.9669C91.3879 10.3035 90.9637 9.71646 90.4143 9.26088C89.865 8.80529 89.2084 8.49604 88.5062 8.36212" fill="#282828"/>
<path d="M90.4522 12.55C90.4525 13.0729 90.2969 13.5841 90.0054 14.0189C89.7138 14.4538 89.2993 14.7928 88.8142 14.993C88.3291 15.1933 87.7953 15.2458 87.2802 15.1439C86.7652 15.042 86.292 14.7904 85.9206 14.4207C85.5492 14.0511 85.2963 13.5801 85.1937 13.0673C85.0912 12.5545 85.1437 12.0229 85.3446 11.5398C85.5455 11.0567 85.8858 10.6438 86.3224 10.3533C86.759 10.0628 87.2723 9.90771 87.7974 9.90771C88.5013 9.90771 89.1764 10.1861 89.6743 10.6816C90.1721 11.177 90.4519 11.8491 90.4522 12.55Z" fill="#FF8500"/>
<path d="M14.9312 9.42471C10.505 9.42471 7.16998 12.7727 7.16998 17.2129V17.2697C7.16998 21.677 10.5073 24.9977 14.9312 24.9977C19.3551 24.9977 22.6924 21.6508 22.6924 17.2106V17.1606C22.6924 12.7534 19.3539 9.43267 14.9312 9.43267M21.4574 17.1845V17.2413C21.4574 20.9917 18.6645 23.8226 14.962 23.8226C11.288 23.8226 8.40949 20.9314 8.40949 17.2413V17.1845C8.40949 13.4342 11.2012 10.6032 14.9038 10.6032C18.5789 10.6032 21.4574 13.4944 21.4574 17.1845Z" fill="#282828"/>
<path d="M59.3104 11.1146C58.1999 10.0089 56.5769 9.44858 54.4871 9.44858C52.7374 9.44858 51.1417 9.84748 49.3133 10.7419L49.0519 10.8703L49.529 11.9386L49.8109 11.8033C51.507 10.9908 52.9405 10.6282 54.4585 10.6282C57.8198 10.6282 59.5946 12.2886 59.5946 15.4298V16.2106C57.9393 15.7021 56.217 15.4428 54.4848 15.4412C50.3999 15.4412 47.7588 17.3504 47.7588 20.303V20.3609C47.7588 23.5249 50.708 24.9648 53.4484 24.9648C56.4924 24.9648 58.5845 23.543 59.5946 22.1395V25.0023H60.8079V15.4003C60.8079 13.574 60.2897 12.092 59.3081 11.1146M59.5946 17.447V19.071C59.5946 21.3383 57.256 23.7851 53.477 23.7851C51.4122 23.7851 49.0017 22.8816 49.0017 20.3325V20.2746C49.0017 17.5811 51.8494 16.622 54.5144 16.622C56.4091 16.622 58.0252 16.8845 59.5946 17.447Z" fill="#282828"/>
<path d="M36.2243 10.626C37.5711 10.6119 38.8867 11.0303 39.9759 11.8193L39.9964 11.834H41.8431L41.705 11.7056C40.6995 10.7385 39.0388 9.45087 36.2517 9.45087C32.0412 9.45087 28.6137 12.9262 28.6137 17.197V17.2516C28.6137 21.5258 32.0287 25.0023 36.2243 25.0023C38.346 25.0023 40.138 24.2545 41.7028 22.7157L41.8363 22.5839H40.001L39.9805 22.5987C38.9073 23.4052 37.5961 23.8352 36.2517 23.8215C32.7249 23.8215 29.8601 20.8667 29.8601 17.2243V17.1697C29.8601 13.5012 32.6575 10.6282 36.2288 10.6282" fill="#282828"/>
</g>
<path d="M111.408 25V16.6H112.608V23.956H117.156V25H111.408ZM119.005 25.072C118.561 25.072 118.189 24.724 118.189 24.244C118.189 23.764 118.561 23.428 119.005 23.428C119.437 23.428 119.797 23.764 119.797 24.244C119.797 24.724 119.437 25.072 119.005 25.072ZM121.615 25V16.6H122.815V23.956H127.363V25H121.615ZM129.212 25.072C128.768 25.072 128.396 24.724 128.396 24.244C128.396 23.764 128.768 23.428 129.212 23.428C129.644 23.428 130.004 23.764 130.004 24.244C130.004 24.724 129.644 25.072 129.212 25.072ZM135.344 25.096C132.8 25.096 130.904 23.284 130.904 20.8C130.904 18.316 132.8 16.504 135.356 16.504C136.652 16.504 137.78 16.948 138.548 17.812L137.768 18.568C137.12 17.884 136.328 17.572 135.404 17.572C133.508 17.572 132.104 18.94 132.104 20.8C132.104 22.66 133.508 24.028 135.404 24.028C136.328 24.028 137.12 23.704 137.768 23.02L138.548 23.776C137.78 24.64 136.652 25.096 135.344 25.096Z" fill="#282828"/>
<defs>
<clipPath id="clip0_1_4">
<rect width="98" height="25" fill="white"/>
</clipPath>
</defs>
</svg>
